HIERARCHY
ROOT Hips
{
	OFFSET 0.000000 0.000000 0.000000
	CHANNELS 6 Xposition Yposition Zposition Xrotation Yrotation Zrotation
	JOINT LeftUpLeg_virtual
	{
		OFFSET 0.000000 0.000000 0.000000
		CHANNELS 3 Xrotation Yrotation Zrotation
		JOINT LeftUpLeg
		{
			OFFSET 10.205400 -3.823500 0.155100
			CHANNELS 3 Xrotation Yrotation Zrotation
			JOINT LeftLeg
			{
				OFFSET 0.708757 -12.982077 0.567790
				CHANNELS 3 Xrotation Yrotation Zrotation
				JOINT LeftFoot
				{
					OFFSET -0.708756 -10.717838 -2.184338
					CHANNELS 3 Xrotation Yrotation Zrotation
					JOINT LeftToeBase
					{
						OFFSET 0.108149 -7.191104 7.560241
						CHANNELS 3 Xrotation Yrotation Zrotation
						JOINT LeftToe_End
						{
							OFFSET 0.070230 0.081724 4.490308
							CHANNELS 3 Xrotation Yrotation Zrotation
							End Site
							{
								OFFSET 0 0 0
							}
						}
					}
				}
			}
		}
	}
	JOINT RightUpLeg_virtual
	{
		OFFSET 0.000000 0.000000 0.000000
		CHANNELS 3 Xrotation Yrotation Zrotation
		JOINT RightUpLeg
		{
			OFFSET -10.205400 -3.823500 0.005500
			CHANNELS 3 Xrotation Yrotation Zrotation
			JOINT RightLeg
			{
				OFFSET -0.708756 -12.982134 0.610632
				CHANNELS 3 Xrotation Yrotation Zrotation
				JOINT RightFoot
				{
					OFFSET 0.708754 -10.717769 -1.945823
					CHANNELS 3 Xrotation Yrotation Zrotation
					JOINT RightToeBase
					{
						OFFSET -0.108140 -7.191069 7.372968
						CHANNELS 3 Xrotation Yrotation Zrotation
						JOINT RightToe_End
						{
							OFFSET -0.070227 0.081735 4.479403
							CHANNELS 3 Xrotation Yrotation Zrotation
							End Site
							{
								OFFSET 0 0 0
							}
						}
					}
				}
			}
		}
	}
	JOINT Spine_virtual
	{
		OFFSET 0.000000 0.000000 0.000000
		CHANNELS 3 Xrotation Yrotation Zrotation
		JOINT Spine
		{
			OFFSET 0.000000 6.876099 0.125700
			CHANNELS 3 Xrotation Yrotation Zrotation
			JOINT Spine1
			{
				OFFSET 0.000000 5.730043 0.104720
				CHANNELS 3 Xrotation Yrotation Zrotation
				JOINT Spine1_split
				{
					OFFSET 0.000000 5.730043 0.104720
					CHANNELS 3 Xrotation Yrotation Zrotation
					JOINT Spine2
					{
						OFFSET 0.000000 5.730043 0.104720
						CHANNELS 3 Xrotation Yrotation Zrotation
						JOINT Neck_virtual
						{
							OFFSET 0.000000 0.000000 0.000000
							CHANNELS 3 Xrotation Yrotation Zrotation
							JOINT Neck
							{
								OFFSET 0.000000 10.314075 0.188496
								CHANNELS 3 Xrotation Yrotation Zrotation
								JOINT Head
								{
									OFFSET 0.000000 7.643700 -2.377400
									CHANNELS 3 Xrotation Yrotation Zrotation
									JOINT HeadTop_End
									{
										OFFSET 0.000000 43.788605 -13.619600
										CHANNELS 3 Xrotation Yrotation Zrotation
										End Site
										{
											OFFSET 0 0 0
										}
									}
								}
							}
						}
						JOINT LeftShoulder_virtual
						{
							OFFSET 0.000000 0.000000 0.000000
							CHANNELS 3 Xrotation Yrotation Zrotation
							JOINT LeftShoulder
							{
								OFFSET 2.196100 4.412489 0.087492
								CHANNELS 3 Xrotation Yrotation Zrotation
								JOINT LeftShoulder_split
								{
									OFFSET 2.196100 4.412489 0.087492
									CHANNELS 3 Xrotation Yrotation Zrotation
									JOINT LeftArm
									{
										OFFSET 8.771219 -2.981674 -0.026999
										CHANNELS 3 Xrotation Yrotation Zrotation
										JOINT LeftForeArm
										{
											OFFSET 8.512804 0.000000 -0.000000
											CHANNELS 3 Xrotation Yrotation Zrotation
											JOINT LeftHand
											{
												OFFSET 18.484802 0.000000 -0.000000
												CHANNELS 3 Xrotation Yrotation Zrotation
												End Site
												{
													OFFSET 0 0 0
												}
											}
										}
									}
								}
							}
						}
						JOINT RightShoulder_virtual
						{
							OFFSET 0.000000 0.000000 0.000000
							CHANNELS 3 Xrotation Yrotation Zrotation
							JOINT RightShoulder
							{
								OFFSET -2.196100 4.412496 0.070690
								CHANNELS 3 Xrotation Yrotation Zrotation
								JOINT RightShoulder_split
								{
									OFFSET -2.196100 4.412496 0.070690
									CHANNELS 3 Xrotation Yrotation Zrotation
									JOINT RightArm
									{
										OFFSET -8.771282 -2.981682 -0.094208
										CHANNELS 3 Xrotation Yrotation Zrotation
										JOINT RightForeArm
										{
											OFFSET -8.494598 0.000000 0.000000
											CHANNELS 3 Xrotation Yrotation Zrotation
											JOINT RightHand
											{
												OFFSET -18.483803 0.000000 0.000001
												CHANNELS 3 Xrotation Yrotation Zrotation
												End Site
												{
													OFFSET 0 0 0
												}
											}
										}
									}
								}
							}
						}
					}
				}
			}
		}
	}
}
MOTION
Frames: 11
Frame Time: 0.03333333
9.869434 30.694420 2.888361 0.000000 0.000000 0.000000 157.029355 -66.427285 163.567936 -53.472766 41.509710 53.013302 40.768480 -5.981592 -7.961630 -3.310857 9.217056 -2.425181 2.196391 4.612239 -9.350134 0.000000 0.000000 0.000000 158.613617 -66.467358 166.587426 -34.509715 -17.574944 -34.292430 29.796072 -3.799306 0.569622 -21.260250 -5.236228 12.189548 2.061624 4.018542 1.213901 0.000000 0.000000 0.000000 149.183271 -69.564247 155.385123 10.796629 -3.112344 -0.621602 5.412618 -3.172742 -2.766665 0.285460 -1.559762 0.941349 0.000000 0.000000 0.000000 -1.615907 -4.902947 -1.933374 4.545143 14.451065 -2.329093 -15.762014 10.940929 -3.184294 0.000000 0.000000 0.000000 -1.689377 -5.445607 -1.602769 -1.147135 -9.524127 -5.532531 0.362245 0.697581 0.767972 -25.031991 -14.345509 -47.938830 -14.548025 -28.182498 -14.713489 0.000000 0.000000 0.000000 -3.572868 -5.726206 -1.947443 -5.574182 19.021300 3.724719 1.209784 -3.434076 0.203776 -12.430470 -10.880717 60.329982 10.662432 38.149202 -2.091205 0.000000 0.000000 0.000000 
10.000345 30.628952 2.302942 0.000000 0.000000 0.000000 157.074980 -64.451024 163.725126 -56.852094 39.757746 55.744917 42.963502 -8.860706 -7.850245 -0.622858 7.471400 1.380040 1.687364 5.069947 -11.671941 0.000000 0.000000 0.000000 159.177053 -63.826308 167.377638 -36.182302 -17.170448 -33.325623 30.983927 -2.723814 1.209924 -22.888488 -3.902489 12.279428 1.971081 4.370902 1.341716 0.000000 0.000000 0.000000 149.970860 -67.006355 156.390896 11.037654 -3.038386 -0.916820 4.715627 -2.231188 -2.881576 0.444580 -1.808071 0.780610 0.000000 0.000000 0.000000 -2.386111 -3.885232 -2.013194 3.827892 16.061835 -3.353135 -16.184569 12.513117 -3.264591 0.000000 0.000000 0.000000 -2.429715 -4.375708 -1.706448 -0.955121 -9.033297 -5.549630 0.446180 0.527709 0.418607 -25.365291 -15.997070 -48.052314 -15.713533 -30.646178 -14.930561 0.000000 0.000000 0.000000 -4.196396 -4.638800 -2.044888 -5.704746 18.803333 3.692008 1.337572 -3.251619 -0.094555 -11.831614 -11.142472 60.638659 12.812260 38.047559 -3.453605 0.000000 0.000000 0.000000 
10.079638 30.550257 1.846519 0.000000 0.000000 0.000000 157.274572 -62.732303 163.966764 -59.353142 38.336028 57.352648 44.105680 -11.769311 -7.474284 2.208601 5.956059 5.035443 0.975399 5.118353 -13.087232 0.000000 0.000000 0.000000 159.658254 -61.412184 168.023446 -37.210587 -16.617927 -32.461782 32.471959 -1.664666 1.721468 -24.987591 -2.721362 12.420377 2.280047 4.518011 1.584169 0.000000 0.000000 0.000000 150.784130 -64.788873 157.409482 11.353168 -2.918006 -1.064009 4.066409 -1.315390 -3.075742 0.617224 -2.089082 0.710171 0.000000 0.000000 0.000000 -3.150681 -2.895019 -2.148988 3.287201 17.562839 -4.174582 -16.292962 13.896305 -3.261907 0.000000 0.000000 0.000000 -3.138154 -3.342332 -1.879902 -0.797885 -8.714042 -5.457350 0.791299 0.423021 0.161659 -25.718568 -16.179417 -48.378278 -17.029441 -33.148438 -15.320215 0.000000 0.000000 0.000000 -4.763773 -3.575431 -2.204510 -5.754932 18.571798 3.530772 1.371296 -3.067643 -0.335958 -10.909400 -11.431425 60.843872 14.626609 37.971952 -4.624424 0.000000 0.000000 0.000000 
10.087113 30.466003 1.427769 0.000000 0.000000 0.000000 157.557246 -61.242591 164.188404 -61.125132 37.259454 58.138249 43.879341 -14.586596 -7.105956 4.709590 4.610208 7.816694 0.907251 4.639612 -13.561153 0.000000 0.000000 0.000000 160.042110 -59.272320 168.471902 -37.477542 -15.935236 -31.690671 33.938445 -0.799988 2.074515 -27.683546 -1.720051 12.263314 3.421533 4.534524 1.802641 0.000000 0.000000 0.000000 151.778046 -62.811833 158.542269 11.757584 -2.789390 -1.045996 3.471449 -0.467096 -3.319111 0.696584 -2.336734 0.697470 0.000000 0.000000 0.000000 -3.898995 -1.973287 -2.333959 2.937824 18.889006 -4.798097 -16.094509 15.067954 -3.142777 0.000000 0.000000 0.000000 -3.811632 -2.372587 -2.106181 -0.694084 -8.533580 -5.346099 1.295963 0.371992 -0.011552 -25.998907 -15.016482 -48.706813 -18.377450 -35.493730 -15.804757 0.000000 0.000000 0.000000 -5.287733 -2.587056 -2.428630 -5.722697 18.306526 3.279466 1.330702 -3.058393 -0.516631 -9.791808 -11.670621 60.801497 15.996873 37.921173 -5.519611 0.000000 0.000000 0.000000 
9.990379 30.386429 1.076166 0.000000 0.000000 0.000000 158.028571 -59.847531 164.531921 -62.556132 36.114598 58.413786 42.879241 -17.285098 -6.882540 7.470822 3.336142 8.814275 1.931444 3.602392 -13.093053 0.000000 0.000000 0.000000 160.366162 -57.425020 168.741299 -37.151441 -15.011641 -31.040047 35.256542 -0.068786 2.287114 -30.466366 -0.821927 11.935254 4.844661 4.493671 1.956334 0.000000 0.000000 0.000000 152.843378 -61.022215 159.574324 12.241520 -2.660346 -0.864652 2.932368 0.305202 -3.588126 0.607699 -2.432295 0.926402 0.000000 0.000000 0.000000 -4.588319 -1.127132 -2.547212 2.777721 19.991801 -5.262767 -15.648634 15.964027 -2.878152 0.000000 0.000000 0.000000 -4.461867 -1.470188 -2.365566 -0.651014 -8.493718 -5.294486 1.958309 0.385821 -0.102215 -26.063645 -12.906438 -48.958980 -19.632520 -37.502294 -16.261232 0.000000 0.000000 0.000000 -5.772301 -1.683026 -2.697365 -5.647930 18.040019 3.053312 1.204227 -3.215225 -0.649830 -8.507133 -11.768763 60.491161 16.790507 37.736829 -6.044580 0.000000 0.000000 0.000000 
9.781975 30.321413 0.729860 0.000000 0.000000 0.000000 158.708611 -58.456119 165.028299 -63.579082 34.613859 58.139677 41.903248 -19.787589 -6.710278 10.468880 2.108648 7.977026 2.941773 2.200408 -11.328813 0.000000 0.000000 0.000000 160.775249 -55.671615 169.010900 -36.649357 -13.899327 -30.627231 36.265617 0.618358 2.399065 -32.448876 -0.015396 11.832265 5.650380 4.408017 1.998778 0.000000 0.000000 0.000000 154.045887 -59.260743 160.587842 12.776612 -2.513459 -0.571444 2.445936 1.036623 -3.857028 0.452945 -2.549342 1.155159 0.000000 0.000000 0.000000 -5.187384 -0.334801 -2.764993 2.805593 20.817848 -5.679180 -15.076674 16.512670 -2.474769 0.000000 0.000000 0.000000 -5.084900 -0.614761 -2.637933 -0.658627 -8.561687 -5.378182 2.731266 0.279818 -0.155649 -25.765121 -10.374011 -49.035963 -20.656413 -39.103868 -16.603340 0.000000 0.000000 0.000000 -6.247619 -0.849820 -2.975184 -5.534870 17.790611 2.929089 0.933789 -3.445353 -0.659097 -7.023101 -11.796482 60.001689 16.904786 37.133348 -6.119724 0.000000 0.000000 0.000000 
9.439925 30.262407 0.418270 0.000000 0.000000 0.000000 159.658677 -56.875532 165.783554 -63.920858 32.987310 57.130909 41.459484 -21.444082 -6.504438 12.173958 1.312850 6.738207 2.725965 0.671843 -8.297470 0.000000 0.000000 0.000000 161.424759 -53.876829 169.517277 -36.226893 -12.702691 -30.378520 37.064879 1.357912 2.430926 -33.251663 0.717380 12.094257 5.654536 4.267481 1.954088 0.000000 0.000000 0.000000 155.348650 -57.474717 161.611497 13.308920 -2.309880 -0.246498 2.004425 1.767646 -4.100782 0.239322 -2.607682 1.370720 0.000000 0.000000 0.000000 -5.677457 0.441475 -2.958211 2.971476 21.336212 -6.141251 -14.527987 16.669012 -1.935189 0.000000 0.000000 0.000000 -5.675526 0.230823 -2.899587 -0.696787 -8.698371 -5.581440 3.501588 0.070925 -0.191468 -24.896540 -7.892325 -48.923692 -21.351135 -40.281027 -16.766525 0.000000 0.000000 0.000000 -6.721626 -0.048523 -3.235647 -5.377661 17.556784 2.911635 0.685922 -3.530411 -0.666219 -5.302183 -11.824062 59.514669 16.307608 36.013026 -5.769918 0.000000 0.000000 0.000000 
8.988406 30.193050 0.151001 0.000000 0.000000 0.000000 160.835191 -55.127577 166.807863 -63.621074 31.569128 55.360869 41.595142 -21.761060 -6.161419 11.445683 1.350602 6.221333 1.360354 -0.937451 -4.669466 0.000000 0.000000 0.000000 162.274066 -52.006836 170.252328 -35.856014 -11.572897 -30.199955 37.724463 2.046162 2.405079 -33.330852 1.352733 12.491741 5.217207 4.066995 1.890420 0.000000 0.000000 0.000000 156.651604 -55.607405 162.621927 13.802373 -2.019018 -0.021802 1.594838 2.541982 -4.299221 0.045280 -2.741156 1.519599 0.000000 0.000000 0.000000 -6.065171 1.236431 -3.095553 3.257916 21.510936 -6.719538 -14.148809 16.465947 -1.285628 0.000000 0.000000 0.000000 -6.251674 1.087614 -3.126709 -0.741077 -8.862908 -5.830906 4.241345 -0.221450 -0.154024 -23.486186 -5.776133 -48.690417 -21.642096 -40.972003 -16.696409 0.000000 0.000000 0.000000 -7.205559 0.760962 -3.441417 -5.177438 17.325419 2.940274 0.407922 -3.277982 -0.749183 -3.371547 -12.008259 59.164547 15.065879 34.571808 -5.119581 0.000000 0.000000 0.000000 
8.434980 30.098261 -0.041710 0.000000 0.000000 0.000000 162.044790 -53.210456 167.932358 -62.716819 30.545856 52.909603 41.937245 -21.032099 -5.617245 8.446045 2.023936 6.266982 -0.181183 -2.562508 -1.390718 0.000000 0.000000 0.000000 163.256138 -50.104588 171.192900 -35.448689 -10.704291 -30.142882 38.493659 2.417607 2.345800 -33.111138 1.765693 12.683272 4.642246 3.811847 1.824479 0.000000 0.000000 0.000000 157.880041 -53.721292 163.698871 14.218627 -1.653552 -0.023393 1.197995 3.355157 -4.429647 -0.021764 -2.965525 1.528771 0.000000 0.000000 0.000000 -6.396238 2.051858 -3.147895 3.644118 21.352394 -7.469532 -14.020447 15.957917 -0.566872 0.000000 0.000000 0.000000 -6.823559 1.957692 -3.273188 -0.777408 -8.971847 -6.037153 4.853686 -0.404279 -0.054920 -21.638075 -4.202127 -48.400906 -21.602637 -41.298773 -16.457665 0.000000 0.000000 0.000000 -7.688741 1.577042 -3.556196 -4.930365 17.032308 2.885796 0.203550 -2.698564 -0.825541 -1.288401 -12.528169 59.078138 13.280670 33.234843 -4.341258 0.000000 0.000000 0.000000 
7.787453 29.955328 -0.153973 0.000000 0.000000 0.000000 163.213941 -51.213298 169.146848 -61.624610 29.695730 49.831448 42.045716 -19.898496 -4.930493 4.741533 2.815436 5.958806 -1.118113 -4.016889 1.042995 0.000000 0.000000 0.000000 164.205138 -48.262943 172.222482 -35.015624 -10.007142 -30.295601 39.573897 2.518716 2.248930 -32.731083 1.952912 12.812011 4.179370 3.540031 1.721822 0.000000 0.000000 0.000000 158.901264 -51.951669 164.744163 14.547166 -1.247178 -0.340697 0.820141 4.170268 -4.456137 -0.001132 -3.218376 1.567465 0.000000 0.000000 0.000000 -6.697059 2.861911 -3.087909 4.100797 20.904033 -8.348371 -14.143469 15.306751 0.176852 0.000000 0.000000 0.000000 -7.410764 2.811493 -3.293326 -0.788865 -8.974793 -6.083412 5.315492 -0.435029 0.040222 -19.508260 -3.203671 -48.135270 -21.386856 -41.414316 -16.164915 0.000000 0.000000 0.000000 -8.163749 2.382443 -3.549480 -4.664401 16.625714 2.669194 0.090202 -2.042392 -0.837930 0.798802 -13.537808 59.301574 11.041595 32.503245 -3.536885 0.000000 0.000000 0.000000 
7.068409 29.777046 -0.212078 0.000000 0.000000 0.000000 164.138598 -49.343021 170.212194 -60.618229 29.003073 46.478478 41.281353 -18.996506 -4.224317 1.894864 3.185648 4.695189 -1.604391 -5.197052 2.761618 0.000000 0.000000 0.000000 165.004803 -46.595957 173.190880 -34.653508 -9.261653 -30.847494 40.847700 2.622708 2.023692 -32.286936 1.970117 13.484609 3.827125 3.315286 1.547115 0.000000 0.000000 0.000000 159.677406 -50.368742 165.694092 14.764188 -0.842058 -0.991631 0.465598 4.926513 -4.354764 0.003699 -3.607172 1.531730 0.000000 0.000000 0.000000 -7.003436 3.613061 -2.899237 4.602778 20.225201 -9.299145 -14.446052 14.662278 0.869309 0.000000 0.000000 0.000000 -8.000577 3.603934 -3.159898 -0.763568 -8.853347 -5.953503 5.537521 -0.358272 0.093988 -17.228626 -2.675782 -47.903569 -21.143354 -41.345143 -15.928577 0.000000 0.000000 0.000000 -8.616862 3.132966 -3.384998 -4.436379 16.111419 2.293792 0.218177 -1.474380 -0.669749 2.718748 -15.120294 59.809733 8.389462 32.680720 -2.683869 0.000000 0.000000 0.000000 
